PathFileType	4	(X/Y/Z)	D:\TRACE\spot_10-12-23\spot_arm_motion_2_4-platform.trc
DataRate	CameraRate	NumFrames	NumMarkers	Units	OrigDataRate	OrigDataStartFrame	OrigNumFrames
100.00	100.00	      57	5	mm	100.00	1	      7000
Frame#	Time	Left_Front			Right_Front			Left_Aft			Right_Aft			Post			
		X1	Y1	Z1	X2	Y2	Z2	X3	Y3	Z3	X4	Y4	Z4	X5	Y5	Z5	

1	0.000	-780.41785	6.15133	-641.57654	792.02356	10.93156	-634.86163	-697.50061	5.33297	496.47256	719.51318	9.79127	582.39203	2.25596	744.02747	-959.46326	
2	0.010	-780.51837	6.22458	-641.52966	791.92236	10.95096	-634.94067	-697.52332	5.38666	496.44632	719.51794	9.79487	582.37140	2.29592	744.02246	-959.49585	
3	0.020	-780.51569	6.20482	-641.51837	792.01703	10.91234	-634.85217	-697.52094	5.36077	496.47891	719.50049	9.81052	582.39575	2.29203	744.00629	-959.47406	
4	0.030	-780.42584	6.17350	-641.55322	791.94012	10.94151	-634.92816	-697.47388	5.35005	496.45215	719.50507	9.80147	582.38751	2.26870	744.00427	-959.46356	
5	0.040	-780.43805	6.16231	-641.55884	792.00024	10.89980	-634.86646	-697.52643	5.35163	496.46530	719.51581	9.79423	582.39716	2.32705	744.00647	-959.44769	
6	0.050	-780.41376	6.19776	-641.57855	791.85846	10.91258	-634.95477	-697.53479	5.37480	496.41794	719.49738	9.80026	582.38580	2.28409	744.00018	-959.43774	
7	0.060	-780.48340	6.23470	-641.51721	791.88928	10.93180	-634.96051	-697.52740	5.39765	496.43823	719.50793	9.81787	582.39777	2.26068	743.99213	-959.39734	
8	0.070	-780.46771	6.19440	-641.52570	791.84167	10.93279	-634.98047	-697.53656	5.39483	496.45944	719.49054	9.80063	582.38550	2.22921	743.99377	-959.40088	
9	0.080	-780.46655	6.13894	-641.53912	791.80353	10.90203	-634.98438	-697.49896	5.35464	496.45792	719.48926	9.80307	582.39117	2.23376	744.00476	-959.51581	
10	0.090	-780.43628	6.17708	-641.55939	791.98438	10.89773	-634.88696	-697.51215	5.39399	496.44370	719.50055	9.80560	582.38086	2.26312	744.01129	-959.54169	
11	0.100	-780.41187	6.19573	-641.56317	791.99164	10.92724	-634.88196	-697.51398	5.36757	496.46790	719.52216	9.80103	582.39557	2.28665	743.97565	-959.55737	
12	0.110	-780.45667	6.21898	-641.53534	791.94781	10.92283	-634.87427	-697.55341	5.36894	496.44650	719.49438	9.78293	582.38751	2.24472	744.01373	-959.54919	
13	0.120	-780.50641	6.21661	-641.51263	792.01630	10.88510	-634.85718	-697.55347	5.40138	496.45135	719.48633	9.80509	582.38971	2.28089	744.01508	-959.58795	
14	0.130	-780.49097	6.20599	-641.52997	791.85419	10.92747	-634.96594	-697.55469	5.39994	496.41498	719.47601	9.79402	582.38678	2.23172	744.03333	-959.51306	
15	0.140	-780.47626	6.21825	-641.55243	792.01202	10.93136	-634.84424	-697.54126	5.37166	496.41306	719.48688	9.80952	582.38409	2.32331	744.01410	-959.58099	
16	0.150	-780.41193	6.18459	-641.56348	792.01880	10.91580	-634.82751	-697.52881	5.38645	496.43774	719.50122	9.82559	582.37579	2.25178	744.02240	-959.55267	
17	0.160	-780.51007	6.20275	-641.53906	791.84302	10.91897	-634.97882	-697.56464	5.38593	496.41660	719.49823	9.80075	582.36566	2.24001	744.04114	-959.52789	
18	0.170	-780.38074	6.09882	-641.56592	792.00476	10.91150	-634.81598	-697.53015	5.37854	496.40012	719.47839	9.79625	582.39417	2.25224	744.00262	-959.49371	
19	0.180	-780.47858	6.17515	-641.55145	791.84418	10.92190	-634.98047	-697.52789	5.37986	496.43506	719.47040	9.79520	582.37689	2.26394	743.97443	-959.47607	
20	0.190	-780.49597	6.19144	-641.51880	791.96863	10.89632	-634.85052	-697.57178	5.38183	496.44580	719.49463	9.80941	582.40051	2.21619	744.03967	-959.45593	
21	0.200	-780.53186	6.24622	-641.52087	791.87250	10.93257	-634.90509	-697.58820	5.42165	496.40094	719.47528	9.79240	582.37244	2.24771	744.02155	-959.42291	
22	0.210	-780.45465	6.20119	-641.54926	791.87592	10.93115	-634.92773	-697.59503	5.43270	496.40244	719.46771	9.79209	582.37378	2.24892	744.02197	-959.46631	
23	0.220	-780.47742	6.21265	-641.54694	791.94379	10.91265	-634.82806	-697.60394	5.42068	496.44238	719.47705	9.79459	582.38525	2.25075	744.01971	-959.48596	
24	0.230	-780.48297	6.20718	-641.51239	792.07996	10.85347	-634.82404	-697.59369	5.40602	496.42355	719.48572	9.79665	582.35773	2.30586	743.98291	-959.49390	
25	0.240	-780.51337	6.20575	-641.52905	791.96045	10.92129	-634.87158	-697.60510	5.41695	496.42712	719.44586	9.78471	582.37097	2.25055	743.96497	-959.51611	
26	0.250	-780.49756	6.17436	-641.54309	791.85242	10.92441	-634.95508	-697.63751	5.41736	496.43173	719.51605	9.82355	582.38055	2.25212	744.02051	-959.53931	
27	0.260	-780.45569	6.23310	-641.57648	791.98663	10.90091	-634.85016	-697.63129	5.39549	496.45728	719.48169	9.81207	582.39612	2.26101	744.00500	-959.50897	
28	0.270	-780.39850	6.20915	-641.60413	792.01770	10.89725	-634.83862	-697.54871	5.38949	496.42444	719.51434	9.81862	582.38257	2.23121	744.01971	-959.53827	
29	0.280	-780.46149	6.22167	-641.55420	791.96692	10.89186	-634.88495	-697.60614	5.43809	496.38135	719.44183	9.78037	582.38495	2.26128	743.98871	-959.53625	
30	0.290	-780.48914	6.17773	-641.51849	791.91205	10.86995	-634.91724	-697.62341	5.43864	496.45718	719.45746	9.79131	582.36530	2.26137	743.95929	-959.58716	
31	0.300	-780.50433	6.16624	-641.51117	791.96686	10.95197	-634.85461	-697.62830	5.41085	496.40561	719.43719	9.77881	582.38300	2.21668	744.00513	-959.52661	
32	0.310	-780.50793	6.21367	-641.51416	792.00146	10.92015	-634.89569	-697.60760	5.41773	496.38644	719.53717	9.79769	582.37067	2.29331	743.98120	-959.51105	
33	0.320	-780.49194	6.23173	-641.54846	791.88049	10.91576	-634.95923	-697.59198	5.43228	496.41531	719.46881	9.78436	582.36597	2.23243	744.02539	-959.47418	
34	0.330	-780.42780	6.16939	-641.56140	791.97162	10.92587	-634.87738	-697.62555	5.47578	496.40256	719.47949	9.77675	582.36334	2.22983	744.01239	-959.42670	
35	0.340	-780.45471	6.23708	-641.57184	792.02393	10.91373	-634.86780	-697.63507	5.42600	496.40338	719.48676	9.78801	582.38110	2.25314	744.00500	-959.45056	
36	0.350	-780.48651	6.19604	-641.53229	791.85846	10.93544	-634.97546	-697.59113	5.43014	496.41653	719.47302	9.81306	582.36890	2.26203	743.99506	-959.42450	
37	0.360	-780.45233	6.17252	-641.54773	791.87268	10.94835	-634.95465	-697.62415	5.46653	496.38547	719.46997	9.78107	582.38263	2.28822	743.99475	-959.46051	
38	0.370	-780.51141	6.21177	-641.51666	791.97864	10.94988	-634.84772	-697.59546	5.46674	496.40109	719.50366	9.79513	582.38245	2.25849	743.98663	-959.49982	
39	0.380	-780.46289	6.23503	-641.59131	792.03668	10.93186	-634.88153	-697.62073	5.45554	496.41003	719.47107	9.79735	582.38483	2.28414	743.97705	-959.53253	
40	0.390	-780.46570	6.21605	-641.55383	791.86340	10.93107	-634.96259	-697.65515	5.42843	496.42285	719.49615	9.77976	582.38324	2.26247	743.98053	-959.51947	
41	0.400	-780.42950	6.13491	-641.54041	792.04248	10.92345	-634.83136	-697.62738	5.40860	496.43811	719.48682	9.77709	582.38263	2.23287	744.01190	-959.51929	
42	0.410	-780.48627	6.25751	-641.54346	791.93158	10.88707	-634.90216	-697.62543	5.44505	496.43063	719.45911	9.79753	582.40338	2.23390	743.99481	-959.57428	
43	0.420	-780.52429	6.21581	-641.52258	791.87390	10.96631	-634.96753	-697.64551	5.46511	496.42267	719.49347	9.79167	582.40570	2.28053	744.00555	-959.55011	
44	0.430	-780.44653	6.22932	-641.55524	791.98663	10.89024	-634.85822	-697.61743	5.50254	496.40851	719.49866	9.81544	582.39740	2.19321	743.99780	-959.51410	
45	0.440	-780.46985	6.22131	-641.53766	791.90515	10.93766	-634.94177	-697.63196	5.42261	496.39584	719.46783	9.78856	582.38599	2.28775	743.97919	-959.54779	
46	0.450	-780.52045	6.21720	-641.53021	791.89557	10.93799	-634.93732	-697.60974	5.44465	496.41174	719.47638	9.81995	582.38983	2.22263	744.01514	-959.55072	
47	0.460	-780.48700	6.20247	-641.54529	791.82178	10.91827	-634.98230	-697.60040	5.42844	496.41351	719.47437	9.78931	582.37341	2.23966	743.99182	-959.45526	
48	0.470	-780.46118	6.18753	-641.55878	792.05750	10.94279	-634.82764	-697.64355	5.47526	496.43900	719.45026	9.78275	582.37524	2.21669	743.99493	-959.50049	
49	0.480	-780.46027	6.16452	-641.54114	791.99036	10.90451	-634.85492	-697.58038	5.44622	496.40750	719.47675	9.79813	582.39459	2.24092	744.02264	-959.44879	
50	0.490	-780.48663	6.23036	-641.54480	791.86365	10.94033	-634.95917	-697.64081	5.42996	496.43015	719.48010	9.78515	582.38275	2.19692	744.04163	-959.45856	
51	0.500	-780.40869	6.20146	-641.59583	792.01288	10.88897	-634.86700	-697.56952	5.41082	496.41422	719.50635	9.78645	582.37683	2.29585	744.03015	-959.48883	
52	0.510	-780.42255	6.16795	-641.53137	791.99152	10.93749	-634.86426	-697.61450	5.44008	496.41553	719.50623	9.80146	582.38940	2.21398	744.02765	-959.44568	
53	0.520	-780.46277	6.18902	-641.52216	791.91449	10.96382	-634.93982	-697.59235	5.40340	496.41806	719.51459	9.81362	582.40424	2.25779	744.01038	-959.46552	
54	0.530	-780.52722	6.18655	-641.50183	792.05206	10.89144	-634.83667	-697.60645	5.44022	496.42896	719.48419	9.80344	582.39685	2.18807	743.99426	-959.43304	
55	0.540	-780.45215	6.18256	-641.55408	791.83252	10.92147	-635.01013	-697.59161	5.39912	496.40027	719.48773	9.79807	582.37579	2.23978	744.01233	-959.50134	
56	0.550	-780.54095	6.25822	-641.53351	792.01434	10.91191	-634.83368	-697.59308	5.41745	496.37546	719.47015	9.83763	582.35370	2.22450	743.99457	-959.52930	
57	0.560	-780.44922	6.19378	-641.57043	792.01678	10.93527	-634.87604	-697.60162	5.44433	496.43301	719.48523	9.78479	582.38135	2.23378	744.00775	-959.58185	
